<svg width="23" height="23" viewBox="0 0 23 23" fill="none" xmlns="http://www.w3.org/2000/svg">
<path d="M8.5 22C9.05228 22 9.5 21.5523 9.5 21C9.5 20.4477 9.05228 20 8.5 20C7.94772 20 7.5 20.4477 7.5 21C7.5 21.5523 7.94772 22 8.5 22Z" stroke="black" stroke-linecap="round" stroke-linejoin="round"/>
<path d="M18.5 22C19.0523 22 19.5 21.5523 19.5 21C19.5 20.4477 19.0523 20 18.5 20C17.9477 20 17.5 20.4477 17.5 21C17.5 21.5523 17.9477 22 18.5 22Z" stroke="black" stroke-linecap="round" stroke-linejoin="round"/>
<path d="M0.5 1H4.5L7.18 15.2823C7.27144 15.7734 7.52191 16.2145 7.88755 16.5285C8.25318 16.8424 8.7107 17.0092 9.18 16.9996H18.9C19.3693 17.0092 19.8268 16.8424 20.1925 16.5285C20.5581 16.2145 20.8086 15.7734 20.9 15.2823L22.5 6.3332H5.5" stroke="black" stroke-linecap="round" stroke-linejoin="round"/>
</svg>
